<svg id="Capa_1" data-name="Capa 1" xmlns="http://www.w3.org/2000/svg" viewBox="0 0 98.58 71.22"><path d="M60.74,36H34.39c-.34,0-.48.17-.47.49,0,.51,0,1,.08,1.54l.57,12.07c.12,2.44.22,4.89.38,7.33a3.37,3.37,0,0,0,2,2.89,10.19,10.19,0,0,0,1.1.38H57.32a.52.52,0,0,1,.13-.06,3.5,3.5,0,0,0,3-3.32c.23-4,.4-8,.6-12q.2-4.29.4-8.57C61.44,36.06,61.38,36,60.74,36ZM42.85,54.41a2.68,2.68,0,0,1,0,.49,1.22,1.22,0,0,1-1.3,1,1.2,1.2,0,0,1-1.08-1.2c0-1.71,0-3.42,0-5.12V46.82c0-2.59,0-5.17,0-7.76a1.19,1.19,0,0,1,1.63-1.19,1.17,1.17,0,0,1,.77,1c0,.11,0,.22,0,.34Q42.86,46.82,42.85,54.41Zm6,0a2.58,2.58,0,0,1,0,.48,1.2,1.2,0,0,1-2.38-.24c0-1.56,0-3.11,0-4.67V39.06a1.2,1.2,0,0,1,1.64-1.19,1.16,1.16,0,0,1,.76,1,2,2,0,0,1,0,.34Zm6,0a2.57,2.57,0,0,1,0,.48,1.22,1.22,0,0,1-1.3,1,1.2,1.2,0,0,1-1.08-1.2c0-1.56,0-3.11,0-4.67v-3.2c0-2.57,0-5.14,0-7.72a1.19,1.19,0,0,1,1.63-1.19,1.17,1.17,0,0,1,.77,1c0,.12,0,.23,0,.34Q54.91,46.82,54.9,54.41Z" transform="translate(0.82 -8.57)"/><path d="M62.27,27.26,58,23l-.29-.3c.35-.34.67-.65,1-1a3.59,3.59,0,0,0,0-4.86c-1.18-1.24-2.4-2.45-3.64-3.65a3.53,3.53,0,0,0-4.47-.29,17,17,0,0,0-1.39,1.23l-.3-.29c-1.45-1.46-2.9-2.92-4.37-4.37a2.89,2.89,0,0,0-3.84-.31,22.57,22.57,0,0,0-2.07,2,1.2,1.2,0,0,0,0,1.8L58.92,33.27a1.2,1.2,0,0,0,1.8,0c.52-.51,1-1,1.54-1.54A3,3,0,0,0,62.27,27.26ZM56,21l-5.1-5.11c.31-.31.59-.61.89-.89a1.18,1.18,0,0,1,1.61,0c1.17,1.14,2.32,2.3,3.46,3.46a1.17,1.17,0,0,1,0,1.61C56.62,20.36,56.31,20.64,56,21Z" transform="translate(0.82 -8.57)"/><polygon points="44.48 21.56 41.5 20.47 41.56 23.64 39.79 21 37.97 23.61 38.09 20.43 35.08 21.47 37.05 18.97 34.01 18.04 37.06 17.18 35.15 14.64 38.13 15.73 38.08 12.56 39.85 15.19 41.67 12.59 41.55 15.77 44.55 14.73 42.59 17.23 45.63 18.16 42.57 19.02 44.48 21.56"/><path d="M3.48,75.43a2,2,0,0,1,1.44,1.93,2.42,2.42,0,0,1-2.61,2.31H-.59a.22.22,0,0,1-.23-.22V71.52a.23.23,0,0,1,.23-.23H2.15A2.35,2.35,0,0,1,4.68,73.5a2.11,2.11,0,0,1-1.2,1.87ZM2,74.81a1,1,0,0,0,1-1.08,1,1,0,0,0-1-1H.72v2.1Zm.17,3.45a1,1,0,0,0,1-1.09,1,1,0,0,0-1-1H.72v2.13Z" transform="translate(0.82 -8.57)"/><path d="M10.37,71.17a4.31,4.31,0,1,1-4.3,4.32A4.3,4.3,0,0,1,10.37,71.17Zm0,7.07a2.76,2.76,0,1,0-2.74-2.75A2.77,2.77,0,0,0,10.37,78.24Z" transform="translate(0.82 -8.57)"/><path d="M16.23,71.52a.23.23,0,0,1,.23-.23h3.43a2.56,2.56,0,0,1,.83,5l1.65,3a.22.22,0,0,1-.21.34H20.9a.23.23,0,0,1-.19-.1l-1.59-3.18H17.79v3.06a.23.23,0,0,1-.23.22h-1.1a.22.22,0,0,1-.23-.22Zm3.52,3.59a1.22,1.22,0,0,0,1.19-1.22,1.19,1.19,0,0,0-1.19-1.16H17.8v2.38Z" transform="translate(0.82 -8.57)"/><path d="M24.14,71.52a.23.23,0,0,1,.23-.23H27.8a2.56,2.56,0,0,1,.83,5l1.65,3a.22.22,0,0,1-.21.34H28.81a.23.23,0,0,1-.19-.1L27,76.39H25.7v3.06a.23.23,0,0,1-.23.22h-1.1a.22.22,0,0,1-.23-.22Zm3.52,3.59a1.22,1.22,0,0,0,1.19-1.22,1.19,1.19,0,0,0-1.19-1.16H25.71v2.38Z" transform="translate(0.82 -8.57)"/><path d="M31.06,79.36l3.72-8.06a.23.23,0,0,1,.21-.13h.12a.2.2,0,0,1,.2.13L39,79.36a.21.21,0,0,1-.2.31h-1a.33.33,0,0,1-.34-.24l-.59-1.29H33.24l-.59,1.29a.36.36,0,0,1-.35.24h-1A.21.21,0,0,1,31.06,79.36Zm5.17-2.55L35,74.18h0l-1.17,2.63Z" transform="translate(0.82 -8.57)"/><path d="M40.06,71.52a.23.23,0,0,1,.23-.23h3.42a2.59,2.59,0,0,1,2.61,2.57,2.63,2.63,0,0,1-1.77,2.42l1.64,3a.22.22,0,0,1-.2.34H44.73a.21.21,0,0,1-.19-.1l-1.6-3.18H41.62v3.06a.23.23,0,0,1-.23.22h-1.1a.22.22,0,0,1-.23-.22Zm3.52,3.59a1.23,1.23,0,0,0,1.19-1.22,1.19,1.19,0,0,0-1.19-1.16H41.63v2.38Z" transform="translate(0.82 -8.57)"/><path d="M50.84,71.52a.23.23,0,0,1,.23-.23h1.1a.24.24,0,0,1,.23.23v6.72h3.06a.22.22,0,0,1,.22.22v1a.22.22,0,0,1-.22.22H51.07a.22.22,0,0,1-.23-.22Z" transform="translate(0.82 -8.57)"/><path d="M56.9,71.52a.23.23,0,0,1,.22-.23h1.12a.23.23,0,0,1,.22.23v7.93a.22.22,0,0,1-.22.22H57.12a.22.22,0,0,1-.22-.22Z" transform="translate(0.82 -8.57)"/><path d="M60.16,78.86c-.12-.1-.17-.17-.06-.36l.43-.74a.27.27,0,0,1,.4-.09,2.93,2.93,0,0,0,1.81.75,1,1,0,0,0,1.09-.93c0-.61-.51-1-1.52-1.43s-2.25-1.18-2.25-2.59a2.39,2.39,0,0,1,2.7-2.3,4.2,4.2,0,0,1,2.39.8.3.3,0,0,1,.07.4l-.45.68c-.1.14-.28.24-.42.14a3.13,3.13,0,0,0-1.67-.65c-.68,0-1,.38-1,.83s.44.95,1.41,1.34c1.17.47,2.51,1.17,2.51,2.71a2.53,2.53,0,0,1-2.76,2.37A3.72,3.72,0,0,1,60.16,78.86Z" transform="translate(0.82 -8.57)"/><path d="M68.39,72.73H66.56a.23.23,0,0,1-.23-.23v-1a.23.23,0,0,1,.23-.23h5.23a.23.23,0,0,1,.23.23v1a.23.23,0,0,1-.23.23H70v6.72a.23.23,0,0,1-.23.22H68.62a.23.23,0,0,1-.23-.22Z" transform="translate(0.82 -8.57)"/><path d="M71.83,79.36l3.72-8.06a.23.23,0,0,1,.21-.13h.12a.19.19,0,0,1,.2.13l3.69,8.06a.21.21,0,0,1-.2.31h-1a.34.34,0,0,1-.35-.24l-.59-1.29H74l-.59,1.29a.35.35,0,0,1-.34.24H72A.21.21,0,0,1,71.83,79.36ZM77,76.81l-1.19-2.63h0L74.6,76.81Z" transform="translate(0.82 -8.57)"/><path d="M80.83,71.52a.23.23,0,0,1,.21-.23h2.84a4.19,4.19,0,1,1,0,8.38H81a.22.22,0,0,1-.21-.22Zm2.91,6.69a2.74,2.74,0,0,0,0-5.47H82.38v5.47Z" transform="translate(0.82 -8.57)"/><path d="M93.45,71.17a4.31,4.31,0,1,1-4.3,4.32A4.31,4.31,0,0,1,93.45,71.17Zm0,7.07a2.76,2.76,0,1,0-2.75-2.75A2.76,2.76,0,0,0,93.45,78.24Z" transform="translate(0.82 -8.57)"/></svg>