<svg id="Capa_1" data-name="Capa 1" xmlns="http://www.w3.org/2000/svg" viewBox="0 0 18.46 31.97"><path d="M55.9,35.45H39.73c-.2,0-.29.11-.28.31s0,.63,0,.94l.36,7.41c.07,1.5.13,3,.23,4.5a2,2,0,0,0,1.22,1.77,5.3,5.3,0,0,0,.67.23H53.8l.09,0a2.13,2.13,0,0,0,1.81-2c.14-2.46.25-4.92.37-7.38.08-1.76.16-3.51.25-5.26C56.34,35.5,56.3,35.45,55.9,35.45Zm-11,11.32a1.42,1.42,0,0,1,0,.29.73.73,0,0,1-.8.59.75.75,0,0,1-.66-.74V37.35a.75.75,0,0,1,1-.74.76.76,0,0,1,.47.64v9.52Zm3.7,0a1.46,1.46,0,0,1,0,.3.74.74,0,0,1-1.46-.15V37.35a.74.74,0,0,1,1-.74.73.73,0,0,1,.47.63,1.48,1.48,0,0,1,0,.21Zm3.69,0a1.48,1.48,0,0,1,0,.3.75.75,0,0,1-.8.59.74.74,0,0,1-.66-.74c0-.95,0-1.91,0-2.86v-2c0-1.58,0-3.16,0-4.74a.74.74,0,0,1,1-.74.73.73,0,0,1,.47.63,1.47,1.47,0,0,1,0,.21C52.32,40.56,52.33,43.66,52.32,46.76Z" transform="translate(-39 -18.64)"/><path d="M56.84,30.1l-2.63-2.63L54,27.29l.6-.59a2.21,2.21,0,0,0,0-3c-.73-.76-1.48-1.5-2.24-2.24a2.19,2.19,0,0,0-2.75-.18c-.29.22-.55.49-.85.76l-.18-.18c-.89-.89-1.78-1.79-2.68-2.68A1.78,1.78,0,0,0,43.57,19a14.45,14.45,0,0,0-1.27,1.21.73.73,0,0,0,0,1.1q6.24,6.24,12.49,12.48a.73.73,0,0,0,1.1,0c.32-.31.64-.63,1-.95A1.84,1.84,0,0,0,56.84,30.1ZM53,26.23,49.86,23.1c.2-.19.37-.38.56-.55a.72.72,0,0,1,1,0l2.13,2.13a.72.72,0,0,1,0,1C53.38,25.87,53.19,26,53,26.23Z" transform="translate(-39 -18.64)"/><polygon points="6.43 13.23 4.6 12.56 4.63 14.51 3.55 12.89 2.43 14.49 2.5 12.54 0.66 13.18 1.86 11.64 0 11.07 1.88 10.54 0.7 8.98 2.53 9.65 2.5 7.71 3.58 9.32 4.7 7.73 4.63 9.68 6.47 9.04 5.27 10.57 7.13 11.14 5.26 11.67 6.43 13.23"/></svg>