<svg id="Capa_1" data-name="Capa 1" xmlns="http://www.w3.org/2000/svg" viewBox="0 0 24.54 24.43"><path d="M35.26,46.94c0-.39.07-.78.13-1.16a12.14,12.14,0,0,1,4.92-8.25,12.47,12.47,0,0,1,4-2,.85.85,0,0,1,1,.3.79.79,0,0,1,0,1,8.57,8.57,0,0,0-1.64,3.24,9.1,9.1,0,0,0,.52,6.33,9.19,9.19,0,0,0,14.17,3.29,1,1,0,0,1,.86-.28.75.75,0,0,1,.6.93,12.87,12.87,0,0,1-1.16,3.06,12.2,12.2,0,0,1-3.85,4.29,11.8,11.8,0,0,1-4.7,2,12.12,12.12,0,0,1-10.81-3.06A12,12,0,0,1,35.52,50c-.11-.52-.15-1-.22-1.56,0-.08,0-.16,0-.24Z" transform="translate(-35.26 -35.49)"/></svg>