<svg id="Capa_2" data-name="Capa 2" xmlns="http://www.w3.org/2000/svg" viewBox="0 0 94.73 73.93"><path d="M42.25,39.28H23.19a2.49,2.49,0,0,1-2.42-2.41V29.75a2.5,2.5,0,0,1,2.42-2.42H42.25V8.14a2.4,2.4,0,0,1,2.42-2.29h7.12A2.39,2.39,0,0,1,54.2,8.14V27.33H73.4a2.4,2.4,0,0,1,2.29,2.42v7.12a2.39,2.39,0,0,1-2.29,2.41H54.2V58.22a2.39,2.39,0,0,1-2.41,2.29H44.67a2.4,2.4,0,0,1-2.42-2.29Z" transform="translate(-0.85 -5.85)"/><path d="M.88,79.36,4.6,71.3a.22.22,0,0,1,.2-.13h.12a.22.22,0,0,1,.21.13l3.69,8.06a.21.21,0,0,1-.21.31h-1c-.18,0-.26-.07-.35-.24l-.58-1.29H3.06l-.59,1.29a.37.37,0,0,1-.35.24h-1A.21.21,0,0,1,.88,79.36Zm5.17-2.55-1.2-2.63h0L3.64,76.81Z" transform="translate(-0.85 -5.85)"/><path d="M13.48,71.17a4.53,4.53,0,0,1,2.92,1.11.24.24,0,0,1,0,.34l-.75.78a.21.21,0,0,1-.31,0,2.69,2.69,0,0,0-1.81-.7,2.76,2.76,0,0,0,0,5.52,3.65,3.65,0,0,0,1.43-.3v-1H14a.22.22,0,0,1-.23-.22v-.94a.22.22,0,0,1,.23-.23h2.3a.22.22,0,0,1,.22.23v3.06a.21.21,0,0,1-.1.19,6,6,0,0,1-3,.78,4.31,4.31,0,0,1,0-8.61Z" transform="translate(-0.85 -5.85)"/><path d="M18.28,71.52a.22.22,0,0,1,.22-.23h3.43a2.59,2.59,0,0,1,2.61,2.57,2.63,2.63,0,0,1-1.77,2.42l1.64,3a.22.22,0,0,1-.2.34H23a.21.21,0,0,1-.19-.1l-1.6-3.18H19.83v3.06a.22.22,0,0,1-.22.22H18.5a.22.22,0,0,1-.22-.22Zm3.52,3.59A1.22,1.22,0,0,0,23,73.89a1.18,1.18,0,0,0-1.18-1.16H19.85v2.38Z" transform="translate(-0.85 -5.85)"/><path d="M26.19,71.52a.22.22,0,0,1,.22-.23h4.88a.23.23,0,0,1,.23.23v1a.23.23,0,0,1-.23.23H27.74v2h3a.24.24,0,0,1,.23.23v1a.23.23,0,0,1-.23.23h-3v2.1h3.55a.22.22,0,0,1,.23.22v1a.22.22,0,0,1-.23.22H26.41a.22.22,0,0,1-.22-.22Z" transform="translate(-0.85 -5.85)"/><path d="M36.77,71.17a4.55,4.55,0,0,1,2.92,1.11.23.23,0,0,1,0,.34L39,73.4a.21.21,0,0,1-.31,0,2.71,2.71,0,0,0-1.81-.7,2.76,2.76,0,0,0,0,5.52,3.7,3.7,0,0,0,1.43-.3v-1h-1a.22.22,0,0,1-.23-.22v-.94a.22.22,0,0,1,.23-.23h2.3a.22.22,0,0,1,.21.23v3.06a.21.21,0,0,1-.09.19,6.07,6.07,0,0,1-3,.78,4.31,4.31,0,0,1,0-8.61Z" transform="translate(-0.85 -5.85)"/><path d="M40.57,79.36l3.72-8.06a.23.23,0,0,1,.21-.13h.12a.2.2,0,0,1,.2.13l3.69,8.06a.21.21,0,0,1-.2.31H47.26a.33.33,0,0,1-.34-.24l-.59-1.29H42.75l-.59,1.29a.36.36,0,0,1-.35.24h-1A.21.21,0,0,1,40.57,79.36Zm5.17-2.55-1.2-2.63h0l-1.18,2.63Z" transform="translate(-0.85 -5.85)"/><path d="M49.57,71.52a.23.23,0,0,1,.23-.23h3.42a2.59,2.59,0,0,1,2.61,2.57,2.63,2.63,0,0,1-1.77,2.42l1.64,3a.22.22,0,0,1-.2.34H54.24a.21.21,0,0,1-.19-.1l-1.59-3.18H51.12v3.06a.22.22,0,0,1-.22.22H49.8a.22.22,0,0,1-.23-.22Zm3.52,3.59a1.23,1.23,0,0,0,1.19-1.22,1.19,1.19,0,0,0-1.19-1.16h-2v2.38Z" transform="translate(-0.85 -5.85)"/><path d="M61.36,72.73H59.53a.23.23,0,0,1-.23-.23v-1a.23.23,0,0,1,.23-.23h5.23a.23.23,0,0,1,.23.23v1a.23.23,0,0,1-.23.23H62.93v6.72a.23.23,0,0,1-.23.22H61.59a.23.23,0,0,1-.23-.22Z" transform="translate(-0.85 -5.85)"/><path d="M64.8,79.36l3.73-8.06a.2.2,0,0,1,.2-.13h.12a.19.19,0,0,1,.2.13l3.69,8.06a.21.21,0,0,1-.2.31h-1a.34.34,0,0,1-.35-.24l-.59-1.29H67l-.59,1.29a.35.35,0,0,1-.34.24H65A.21.21,0,0,1,64.8,79.36ZM70,76.81l-1.19-2.63h0l-1.17,2.63Z" transform="translate(-0.85 -5.85)"/><path d="M73.8,71.52a.23.23,0,0,1,.23-.23h3.42a2.6,2.6,0,0,1,2.62,2.57,2.64,2.64,0,0,1-1.78,2.42l1.64,3a.22.22,0,0,1-.2.34H78.47a.21.21,0,0,1-.19-.1l-1.59-3.18H75.36v3.06a.23.23,0,0,1-.23.22H74a.22.22,0,0,1-.23-.22Zm3.52,3.59a1.22,1.22,0,0,0,1.19-1.22,1.19,1.19,0,0,0-1.19-1.16H75.37v2.38Z" transform="translate(-0.85 -5.85)"/><path d="M81.71,71.52a.23.23,0,0,1,.23-.23h4.87a.23.23,0,0,1,.23.23v1a.23.23,0,0,1-.23.23H83.27v2h3a.23.23,0,0,1,.22.23v1a.22.22,0,0,1-.22.23h-3v2.1h3.54a.22.22,0,0,1,.23.22v1a.22.22,0,0,1-.23.22H81.94a.22.22,0,0,1-.23-.22Z" transform="translate(-0.85 -5.85)"/><path d="M87.62,79.36l3.72-8.06a.23.23,0,0,1,.21-.13h.12a.2.2,0,0,1,.2.13l3.69,8.06a.21.21,0,0,1-.2.31h-1a.33.33,0,0,1-.34-.24l-.59-1.29H89.8l-.59,1.29a.36.36,0,0,1-.35.24h-1A.21.21,0,0,1,87.62,79.36Zm5.17-2.55L91.6,74.18h0l-1.17,2.63Z" transform="translate(-0.85 -5.85)"/></svg>