<svg id="salir" xmlns="http://www.w3.org/2000/svg" viewBox="0 0 108.09 24.9"><defs><style>.cls-1{stroke:#000;stroke-linecap:round;stroke-linejoin:round;stroke-width:0.25px;}</style></defs><path class="cls-1" d="M90.63,47.48c-.3-.76,5.59-.21,5.8-.37,4.56-.08,5.69,6.49,1.33,7.94l2.61,4.83c.46,1-2,.41-2.33.55s-2.65-5.12-2.83-5.21H93.1v4.85c0,.66-1.79.25-2.11.36C90.14,60.39,90.85,47.92,90.63,47.48Zm5.59,5.7c2.39,0,2.47-3.81,0-3.78h-3.1v3.78Z" transform="translate(7.47 -41.32)"/><path class="cls-1" d="M83,47.48c-.17-.57,2.67-.55,2.49,0s.52,12.89-.36,13c-.33-.14-2.17.32-2.13-.36Z" transform="translate(7.47 -41.32)"/><path class="cls-1" d="M71.5,47.48c-.18-.56,2.63-.56,2.47,0V58.15h4.85c.65,0,.26,1.59.36,1.92.25.82-7.09.15-7.32.36C71,60.39,71.73,47.92,71.5,47.48Z" transform="translate(7.47 -41.32)"/><path class="cls-1" d="M.07,53.45l-7-11a.63.63,0,0,1,.59-1c.45.13,4.47-.31,4.64.32L2.7,49.24h.14L7.37,41.8c.12-.63,4.23-.2,4.64-.32,2.86-.58-6.73,11.63-6.46,12l7.3,11.63a.63.63,0,0,1-.6,1c-.46-.13-4.2.31-4.39-.31l-5-8H2.7l-4.91,8c-.2.61-3.94.2-4.39.31-.63,0-.91-.53-.63-1Z" transform="translate(7.47 -41.32)"/><path class="cls-1" d="M44.17,59.14c-.56-.21.73-2.45,1.23-1.89,1,1.1,4.42,2,4.61-.28-.36-2.72-6.41-2.59-6-6.39-.53-4,7.41-4.82,8.19-1.75-1.26,2.74-2,.16-4,.26-2.69.28-1.92,2.73.57,3.46,1.85.75,4,1.85,4,4.3C53,61,45.91,61.44,44.17,59.14Z" transform="translate(7.47 -41.32)"/><path class="cls-1" d="M55.31,60c.29-.22,5.69-13.12,6.24-13,.2,0,.46,0,.51.21-.21.24,6.93,13.57,5.54,13.29-2.53.28-2.21-.5-3.14-2.43H58.77c-.32.4-.77,2.5-1.48,2.43C57,60.41,55,60.88,55.31,60ZM63.53,56l-1.91-4.19h0L59.7,56Z" transform="translate(7.47 -41.32)"/></svg>