<svg id="Capa_1" data-name="Capa 1" xmlns="http://www.w3.org/2000/svg" viewBox="0 0 24.84 24.83"><defs><style>.cls-1{fill:#fff;}</style></defs><path class="cls-1" d="M22.64,45.15a1,1,0,0,1,1.05-.62c.46,0,.91,0,1.36,0a.81.81,0,0,1,.82.69.8.8,0,0,1-.49.86,1.21,1.21,0,0,1-.43.07c-.42,0-.84,0-1.26,0a1,1,0,0,1-1.05-.63Z" transform="translate(-22.64 -32.93)"/><path class="cls-1" d="M34.86,57.77a1,1,0,0,1-.62-1.06c0-.45,0-.9,0-1.36A.81.81,0,0,1,35.8,55a1.29,1.29,0,0,1,.07.43c0,.42,0,.84,0,1.26a1,1,0,0,1-.63,1.06Z" transform="translate(-22.64 -32.93)"/><path class="cls-1" d="M42.62,45.36a7.56,7.56,0,1,1-7.56-7.57A7.59,7.59,0,0,1,42.62,45.36Zm-1.63,0a5.94,5.94,0,1,0-5.92,5.94A5.94,5.94,0,0,0,41,45.34Z" transform="translate(-22.64 -32.93)"/><path class="cls-1" d="M35.87,34.57c0,.24,0,.48,0,.73a.81.81,0,1,1-1.62,0q0-.75,0-1.5a.82.82,0,0,1,.8-.86.83.83,0,0,1,.82.86C35.88,34.05,35.87,34.31,35.87,34.57Z" transform="translate(-22.64 -32.93)"/><path class="cls-1" d="M45.85,46.16c-.25,0-.5,0-.75,0a.83.83,0,0,1-.86-.8.82.82,0,0,1,.86-.82h1.51a.81.81,0,1,1,0,1.62C46.35,46.17,46.1,46.16,45.85,46.16Z" transform="translate(-22.64 -32.93)"/><path class="cls-1" d="M30.07,37.5a.77.77,0,0,1-.69-.37c-.28-.48-.57-1-.83-1.45a.8.8,0,0,1,1.39-.8c.29.47.58.95.83,1.44A.79.79,0,0,1,30.07,37.5Z" transform="translate(-22.64 -32.93)"/><path class="cls-1" d="M40.05,37.5a.77.77,0,0,1-.73-1.1,14.94,14.94,0,0,1,.91-1.6.8.8,0,0,1,1.37.81c-.28.53-.59,1-.91,1.57A.7.7,0,0,1,40.05,37.5Z" transform="translate(-22.64 -32.93)"/><path class="cls-1" d="M25,38.71c.14.06.3.1.44.17l1.28.74A.81.81,0,1,1,26,41c-.46-.26-.93-.52-1.38-.8a.79.79,0,0,1-.34-.91A.87.87,0,0,1,25,38.71Z" transform="translate(-22.64 -32.93)"/><path class="cls-1" d="M42.91,40.34a.71.71,0,0,1,.37-.66c.48-.29,1-.58,1.47-.85a.78.78,0,0,1,1,.3.76.76,0,0,1-.25,1.08,16.93,16.93,0,0,1-1.49.86A.79.79,0,0,1,42.91,40.34Z" transform="translate(-22.64 -32.93)"/><path class="cls-1" d="M25.07,52a.82.82,0,0,1-.83-.53.74.74,0,0,1,.27-.89,17.78,17.78,0,0,1,1.59-.92.75.75,0,0,1,1,.35.77.77,0,0,1-.23,1c-.51.32-1,.61-1.55.9A.9.9,0,0,1,25.07,52Z" transform="translate(-22.64 -32.93)"/><path class="cls-1" d="M45.1,52a3.34,3.34,0,0,1-.44-.17c-.44-.24-.87-.49-1.3-.75a.81.81,0,1,1,.79-1.4c.47.26.93.52,1.39.8a.79.79,0,0,1,.35.9A.88.88,0,0,1,45.1,52Z" transform="translate(-22.64 -32.93)"/><path class="cls-1" d="M28.42,55.39a2,2,0,0,1,.16-.43c.24-.45.5-.89.76-1.32a.81.81,0,1,1,1.4.81c-.27.46-.53.93-.81,1.38a.76.76,0,0,1-.9.34A.85.85,0,0,1,28.42,55.39Z" transform="translate(-22.64 -32.93)"/><path class="cls-1" d="M41.67,55.33a.81.81,0,0,1-.54.83.74.74,0,0,1-.89-.26c-.33-.52-.65-1.06-.93-1.61a.77.77,0,0,1,.35-1,.79.79,0,0,1,1,.24c.32.5.6,1,.9,1.54A1.75,1.75,0,0,1,41.67,55.33Z" transform="translate(-22.64 -32.93)"/><path class="cls-1" d="M30.74,45.19A4.34,4.34,0,0,1,35,41a.82.82,0,0,1,.89.79.8.8,0,0,1-.81.82,2.64,2.64,0,0,0-2.44,1.59,2.89,2.89,0,0,0-.25,1.05.83.83,0,0,1-.86.87C31,46.13,30.73,45.75,30.74,45.19Z" transform="translate(-22.64 -32.93)"/></svg>