<svg id="Capa_1" data-name="Capa 1" xmlns="http://www.w3.org/2000/svg" viewBox="0 0 53.06 53.06"><defs><style>.cls-1{fill:none;stroke:#000;stroke-miterlimit:10;stroke-width:2px;}</style></defs><path d="M46.93,46.35V44.62c0-3.93,5.75-5.42,5.75-8.31,0-1.49-1.24-2.77-3.31-2.77-2.52,0-3.63,1.61-4.46,2.15a.69.69,0,0,1-.91,0l-1.94-1.9a.74.74,0,0,1,0-1.08A10.68,10.68,0,0,1,50.16,29c4.34,0,8,2.89,8,6.94,0,5-6.28,6.45-6.28,8.93v1.36a.79.79,0,0,1-.82.87H47.72A.79.79,0,0,1,46.93,46.35ZM49.37,52a3.41,3.41,0,1,1,0,6.82A3.41,3.41,0,0,1,46,55.4,3.44,3.44,0,0,1,49.37,52Z" transform="translate(-23.47 -17.38)"/><circle class="cls-1" cx="26.53" cy="26.53" r="25.53"/></svg>