<svg id="Capa_3" data-name="Capa 3" xmlns="http://www.w3.org/2000/svg" viewBox="0 0 19.23 23.21"><path d="M56.84,35.45H40.67c-.21,0-.3.11-.29.31s0,.63,0,.94c.12,2.47.23,4.94.35,7.41.08,1.5.14,3,.23,4.5a2.07,2.07,0,0,0,1.23,1.77,4.8,4.8,0,0,0,.67.23H54.74l.08,0a2.14,2.14,0,0,0,1.82-2c.14-2.46.24-4.92.36-7.38.09-1.76.17-3.51.25-5.26C57.27,35.5,57.23,35.45,56.84,35.45Zm-11,11.32a1.41,1.41,0,0,1,0,.29.74.74,0,0,1-1.46-.15c0-1,0-2.09,0-3.14V42.11c0-1.59,0-3.18,0-4.76a.74.74,0,1,1,1.47-.1,1.33,1.33,0,0,1,0,.2C45.87,40.56,45.87,43.66,45.86,46.77Zm3.7,0a1.48,1.48,0,0,1,0,.3.75.75,0,0,1-.8.59.74.74,0,0,1-.66-.74c0-.95,0-1.91,0-2.86v-6.7a.74.74,0,0,1,1.48-.11,1.47,1.47,0,0,1,0,.21Zm3.7,0a1.46,1.46,0,0,1,0,.3.73.73,0,0,1-.79.59.75.75,0,0,1-.67-.74V37.35a.74.74,0,0,1,1.48-.11v9.52Z" transform="translate(-39.2 -27.4)"/><path d="M56.49,30.37h-4c0-.3,0-.57,0-.84a2.19,2.19,0,0,0-2.11-2.11c-1,0-2.11,0-3.16,0a2.18,2.18,0,0,0-2.07,1.81,10.26,10.26,0,0,0-.07,1.14h-4a1.79,1.79,0,0,0-1.81,1.53,14.73,14.73,0,0,0,0,1.76.73.73,0,0,0,.78.78H57.65a.73.73,0,0,0,.78-.78c0-.45,0-.9,0-1.34A1.84,1.84,0,0,0,56.49,30.37Zm-5.45,0H46.61c0-.27,0-.52,0-.77a.73.73,0,0,1,.71-.69h3a.74.74,0,0,1,.72.69C51.05,29.83,51,30.08,51,30.35Z" transform="translate(-39.2 -27.4)"/></svg>