<svg id="Capa_2" data-name="Capa 2" xmlns="http://www.w3.org/2000/svg" viewBox="0 0 174.85 91.4"><defs><style>.cls-1{fill:none;stroke:#000;stroke-linecap:round;stroke-linejoin:round;stroke-width:4px;}</style></defs><path d="M-24.5,26.81a1.39,1.39,0,0,1,1.34-1.33h6.52a1.33,1.33,0,0,1,1.34,1.33v18.6H7.57V26.81a1.34,1.34,0,0,1,1.34-1.33h6.45a1.38,1.38,0,0,1,1.34,1.33V73.27a1.38,1.38,0,0,1-1.34,1.33H8.91a1.34,1.34,0,0,1-1.34-1.33V53.9H-15.3V73.27a1.33,1.33,0,0,1-1.34,1.33h-6.52a1.39,1.39,0,0,1-1.34-1.33Z" transform="translate(37.43 -4.3)"/><path d="M50.93,24.78A25.26,25.26,0,1,1,25.74,50.11,25.21,25.21,0,0,1,50.93,24.78Zm0,41.4A16.14,16.14,0,1,0,34.86,50.11,16.18,16.18,0,0,0,50.93,66.18Z" transform="translate(37.43 -4.3)"/><path d="M93.44,51l-16-23.44a1.3,1.3,0,0,1,1.13-2h7.16a1.39,1.39,0,0,1,1.12.63L98.08,42.25,109.3,26.11a1.41,1.41,0,0,1,1.13-.63h7.23a1.3,1.3,0,0,1,1.12,2L102.57,50.88V73.27a1.38,1.38,0,0,1-1.34,1.33H94.78a1.34,1.34,0,0,1-1.34-1.33Z" transform="translate(37.43 -4.3)"/><path d="M128.1,63.72a5.85,5.85,0,0,1,5.82,5.83,5.75,5.75,0,1,1-5.82-5.83Zm-2.39-9.33L123,34.81v-8a1.38,1.38,0,0,1,1.33-1.33H132a1.39,1.39,0,0,1,1.34,1.33v7.86l-2.74,19.72a1.43,1.43,0,0,1-1.34,1.12h-2.24A1.45,1.45,0,0,1,125.71,54.39Z" transform="translate(37.43 -4.3)"/><line class="cls-1" x1="3.93" y1="2" x2="172.85" y2="2"/><line class="cls-1" x1="2" y1="89.4" x2="170.92" y2="89.4"/></svg>